<?xml version="1.0" encoding="UTF-8" standalone="no"?><!DOCTYPE svg PUBLIC "-//W3C//DTD SVG 1.1//EN" "http://www.w3.org/Graphics/SVG/1.1/DTD/svg11.dtd"><svg width="100%" height="100%" viewBox="0 0 25 29" version="1.1" xmlns="http://www.w3.org/2000/svg" xmlns:xlink="http://www.w3.org/1999/xlink" xml:space="preserve" xmlns:serif="http://www.serif.com/" style="fill-rule:evenodd;clip-rule:evenodd;stroke-linejoin:round;stroke-miterlimit:2;"><path d="M11.562,9.602c-0.265,-0.351 -0.914,-0.915 -1.254,-1.255c-0.521,-0.521 -0.659,-0.669 -0.659,-1.562l-0,-3.774c-0,-0.542 -0.829,-0.457 -0.829,0.021c-0,0 -0.064,6.57 -0,7.122c0.064,0.564 -0.223,0.999 0.669,1.563c0.978,0.627 2.403,1.042 2.403,1.042c-0,-0 0.021,-1.446 0.042,-1.988c0.053,-0.425 -0.095,-0.851 -0.372,-1.169m-0.414,2.051c-1.382,-0.563 -1.627,-0.457 -1.457,-2.551c1.637,0.999 1.52,1.361 1.457,2.551" style="fill-rule:nonzero;"/><path d="M12.763,10.771c0.022,0.542 0.043,1.988 0.043,1.988c-0,-0 1.424,-0.415 2.402,-1.042c0.893,-0.564 0.617,-0.999 0.67,-1.563c0.053,-0.563 -0,-7.122 -0,-7.122c-0,-0.478 -0.829,-0.552 -0.829,-0.021l-0,3.774c-0,0.882 -0.138,1.041 -0.659,1.562c-0.34,0.34 -0.978,0.904 -1.255,1.255c-0.265,0.318 -0.403,0.744 -0.372,1.169m2.265,-1.669c0.17,2.105 -0.064,1.998 -1.457,2.551c-0.064,-1.18 -0.18,-1.552 1.457,-2.551" style="fill-rule:nonzero;"/><path d="M13.454,5.764c-0.489,-0.861 0,0 -0.669,-1.127l-0,-4.166c-0,-0.659 -0.819,-0.596 -0.819,-0l0.011,4.156c-0,-0 -0.702,1.18 -0.893,1.647c-0.191,0.468 -0.457,1.032 0.202,1.797c0.053,0.053 0.138,0.212 1.105,1.127l0.872,-0.872c1.052,-1.031 0.67,-1.701 0.191,-2.562m-1.073,2.434c-1.595,-0.85 -0.457,-2.009 -0,-2.785l0.042,0.064c1.18,1.754 0.851,2.02 -0.042,2.721" style="fill-rule:nonzero;"/><path d="M11.881,14.683c-0.042,-0.819 -0.329,-1.542 -1.998,-2.169c-1.403,-0.531 -3.391,-0.638 -4.837,-0.872c-1.445,-0.233 -3.848,-0.627 -5.038,-1.775c0.903,2.987 3.146,4.242 5.442,4.73c2.594,0.553 4.911,0.787 6.325,1.765l0.138,0.096c-0.096,-0.681 0.011,-0.957 -0.032,-1.775m-0.712,0.403c-1.244,-0.478 -2.062,-0.595 -4.294,-1.041c-2.233,-0.447 -3.561,-0.861 -4.773,-2.126c1.934,0.744 5.038,1.01 6.728,1.371c1.691,0.351 2.158,0.787 2.339,1.796Z" style="fill-rule:nonzero;"/><path d="M12.785,16.468l0.138,-0.095c1.414,-0.978 3.731,-1.212 6.324,-1.765c2.286,-0.489 4.539,-1.743 5.443,-4.73c-1.201,1.148 -3.593,1.541 -5.039,1.775c-1.445,0.234 -3.433,0.34 -4.836,0.872c-1.669,0.627 -1.967,1.35 -1.998,2.168c-0.054,0.808 0.053,1.084 -0.032,1.775m0.744,-1.382c0.18,-0.999 0.638,-1.445 2.338,-1.796c1.69,-0.361 4.794,-0.627 6.729,-1.371c-1.201,1.265 -2.541,1.679 -4.773,2.126c-2.232,0.436 -3.061,0.563 -4.294,1.041" style="fill-rule:nonzero;"/><path d="M11.796,18.488c0.021,-1.605 -0.903,-2.062 -2.275,-2.424c-1.371,-0.361 -3.284,-0.627 -4.911,-1.105c-1.615,-0.468 -2.529,-0.776 -3.635,-1.967c0.234,2.328 1.86,3.976 3.869,4.677c1.999,0.702 1.892,0.564 2.977,0.83c1.084,0.276 1.286,0.669 1.286,1.339l-0,1.371l2.689,0c0.064,-3.093 -0.011,-1.105 0,-2.721m-0.776,1.86l-1.095,0c0.011,-0.414 0,-0.829 -0.042,-1.233c-0.085,-1.031 -1.286,-1.116 -3.274,-1.669c-1.361,-0.372 -3.125,-0.861 -3.923,-2.221c0.978,0.425 1.988,0.733 3.03,0.924c1.499,0.309 2.349,0.479 3.731,0.766c1.307,0.276 1.563,1.073 1.563,1.966l0.01,1.467Z" style="fill-rule:nonzero;"/><path d="M12.848,21.22l2.69,-0l-0,-1.371c-0,-0.67 0.202,-1.063 1.286,-1.34c1.084,-0.266 0.978,-0.127 2.976,-0.829c1.999,-0.701 3.636,-2.349 3.869,-4.677c-1.105,1.191 -2.009,1.499 -3.635,1.967c-1.626,0.467 -3.54,0.744 -4.911,1.105c-1.371,0.361 -2.285,0.818 -2.275,2.424c0.022,1.594 -0.042,-0.383 0,2.721m0.787,-2.328c0,-0.882 0.255,-1.69 1.563,-1.967c1.381,-0.287 2.232,-0.457 3.731,-0.765c1.041,-0.202 2.051,-0.521 3.018,-0.946c-0.786,1.361 -2.561,1.839 -3.922,2.222c-1.977,0.552 -3.178,0.637 -3.263,1.668c-0.043,0.415 -0.053,0.819 -0.043,1.233l-1.084,0l0,-1.445Z" style="fill-rule:nonzero;"/><path d="M6.364,28.735c-0.35,0.085 -0.712,0.138 -1.073,0.149c-1.531,-0 -2.594,-0.766 -2.594,-2.36c0,-1.595 0.978,-2.53 2.594,-2.53c0.361,0 0.723,0.064 1.073,0.191l-0.063,0.798c-0.309,-0.17 -0.67,-0.266 -1.021,-0.255c-0.978,-0 -1.584,0.744 -1.584,1.711c0,0.967 0.596,1.679 1.605,1.679c0.351,0 0.702,-0.063 1.031,-0.191l0.032,0.808Z" style="fill-rule:nonzero;"/><path d="M10.744,24.993c-0.383,-0.17 -0.797,-0.255 -1.223,-0.255c-1.105,0 -1.711,0.744 -1.711,1.712c-0,0.967 0.595,1.679 1.605,1.679c0.213,0 0.415,-0.021 0.627,-0.064l0,-1.233l-0.999,0l0,-0.744l1.913,0l0,2.541c-0.499,0.148 -1.009,0.233 -1.53,0.244c-1.531,0 -2.594,-0.765 -2.594,-2.36c0,-1.594 0.989,-2.519 2.583,-2.519c0.468,0 0.935,0.064 1.382,0.191l-0.053,0.808Z" style="fill-rule:nonzero;"/><rect x="11.871" y="24.079" width="0.946" height="4.72"/><path d="M16.388,26.981l-1.382,0l0.681,-1.945l0.021,-0l0.68,1.945Zm-3.051,1.828l0.989,0l0.415,-1.084l1.913,0l0.404,1.084l1.052,0l-1.849,-4.719l-1.063,-0l-1.861,4.719Z" style="fill-rule:nonzero;"/><path d="M19.577,24.823l0.298,0c0.478,0 0.999,0.043 0.999,0.617c-0,0.563 -0.532,0.659 -0.999,0.659l-0.309,-0l0.011,-1.276Zm-0.946,3.976l0.946,-0l-0,-1.967l0.298,0c0.404,0 0.52,0.138 0.659,0.489l0.574,1.467l1.063,0l-0.755,-1.85c-0.096,-0.212 -0.245,-0.467 -0.5,-0.488c0.564,-0.054 0.989,-0.532 0.978,-1.095c0,-1.308 -1.212,-1.276 -2.232,-1.276l-1.02,0l-0.011,4.72Z" style="fill-rule:nonzero;"/></svg>